%FSLAX23Y23*%
%MOIN*%
G70*
G01*
G75*
G04 Layer_Physical_Order=2*
G04 Layer_Color=16711680*
%ADD10R,0.059X0.098*%
%ADD11R,0.059X0.059*%
%ADD12R,0.031X0.035*%
%ADD13R,0.045X0.060*%
%ADD14R,0.035X0.031*%
%ADD15R,0.157X0.081*%
%ADD16R,0.138X0.081*%
%ADD17R,0.089X0.020*%
%ADD18C,0.035*%
%ADD19R,0.098X0.059*%
%ADD20O,0.020X0.079*%
%ADD21O,0.079X0.020*%
%ADD22R,0.079X0.020*%
%ADD23C,0.010*%
%ADD24C,0.012*%
%ADD25C,0.025*%
%ADD26C,0.012*%
%ADD27C,0.004*%
%ADD28C,0.059*%
%ADD29C,0.138*%
%ADD30C,0.040*%
%ADD31R,0.012X0.079*%
%ADD32R,0.059X0.039*%
%ADD33O,0.295X0.256*%
%ADD34O,0.047X0.024*%
%ADD35R,0.079X0.012*%
%ADD36O,0.012X0.079*%
%ADD37R,0.047X0.024*%
%ADD38C,0.008*%
G36*
X347Y-65D02*
X420D01*
Y-92D01*
X397D01*
Y-152D01*
X393Y-155D01*
X392Y-155D01*
X386Y-152D01*
X379Y-150D01*
X372Y-148D01*
X365Y-146D01*
X358Y-145D01*
X351Y-144D01*
X343Y-143D01*
X336Y-143D01*
X322D01*
Y-281D01*
Y-419D01*
X336D01*
X343Y-419D01*
X351Y-418D01*
X358Y-417D01*
X365Y-416D01*
X372Y-414D01*
X379Y-412D01*
X386Y-410D01*
X392Y-407D01*
X399Y-404D01*
X405Y-401D01*
X411Y-397D01*
X417Y-393D01*
X423Y-388D01*
X429Y-384D01*
X434Y-379D01*
X439Y-373D01*
X443Y-368D01*
X448Y-362D01*
X452Y-356D01*
X456Y-350D01*
X457Y-347D01*
X462Y-349D01*
Y-354D01*
Y-374D01*
Y-394D01*
Y-414D01*
Y-433D01*
Y-453D01*
Y-473D01*
Y-492D01*
Y-512D01*
Y-532D01*
Y-551D01*
Y-554D01*
X458Y-557D01*
X458Y-557D01*
X455Y-557D01*
X452Y-556D01*
X445D01*
Y-578D01*
X440D01*
Y-583D01*
X407D01*
X408Y-584D01*
X408Y-587D01*
X410Y-589D01*
X411Y-592D01*
X413Y-594D01*
X415Y-596D01*
X418Y-597D01*
X420Y-598D01*
X423Y-599D01*
X423Y-599D01*
Y-604D01*
X423Y-604D01*
X420Y-605D01*
X418Y-607D01*
X415Y-608D01*
X413Y-610D01*
X413Y-610D01*
X367D01*
X365Y-611D01*
X363Y-611D01*
X362Y-612D01*
X361Y-612D01*
X359Y-613D01*
X357Y-615D01*
X333Y-638D01*
X332Y-640D01*
X331Y-642D01*
X330Y-643D01*
X330Y-644D01*
X329Y-647D01*
X329Y-649D01*
Y-742D01*
X288Y-783D01*
X262D01*
X260Y-783D01*
X257Y-784D01*
X256Y-784D01*
X255Y-785D01*
X253Y-786D01*
X251Y-787D01*
X228Y-810D01*
X227Y-812D01*
X226Y-814D01*
X225Y-815D01*
X225Y-816D01*
X224Y-819D01*
X224Y-821D01*
Y-853D01*
X219Y-853D01*
X219Y-852D01*
X218Y-849D01*
X217Y-845D01*
X215Y-841D01*
X213Y-838D01*
X211Y-835D01*
X208Y-832D01*
X205Y-829D01*
X202Y-827D01*
X199Y-825D01*
X195Y-823D01*
X191Y-822D01*
X188Y-821D01*
X184Y-821D01*
X180Y-820D01*
X176Y-821D01*
X172Y-821D01*
X169Y-822D01*
X165Y-823D01*
X161Y-825D01*
X158Y-827D01*
X155Y-829D01*
X152Y-832D01*
X149Y-835D01*
X147Y-838D01*
X145Y-841D01*
X143Y-845D01*
X142Y-849D01*
X141Y-852D01*
X141Y-856D01*
X140Y-860D01*
X141Y-864D01*
X141Y-868D01*
X142Y-871D01*
X143Y-875D01*
X145Y-879D01*
X147Y-882D01*
X149Y-885D01*
X152Y-888D01*
X155Y-891D01*
X158Y-893D01*
X161Y-895D01*
X165Y-897D01*
X169Y-898D01*
X172Y-899D01*
X176Y-899D01*
X180Y-900D01*
X184Y-899D01*
X188Y-899D01*
X191Y-898D01*
X195Y-897D01*
X199Y-895D01*
X202Y-893D01*
X205Y-891D01*
X208Y-888D01*
X211Y-885D01*
X213Y-882D01*
X215Y-879D01*
X217Y-875D01*
X218Y-871D01*
X219Y-868D01*
X219Y-867D01*
X224Y-867D01*
Y-878D01*
X224Y-879D01*
X224Y-879D01*
X224Y-880D01*
X224Y-880D01*
X224Y-881D01*
X224Y-882D01*
X225Y-882D01*
X225Y-883D01*
X225Y-883D01*
X225Y-884D01*
X225Y-884D01*
X226Y-885D01*
X226Y-885D01*
X226Y-886D01*
X227Y-886D01*
X227Y-887D01*
X227Y-887D01*
X228Y-888D01*
X308Y-978D01*
X308Y-979D01*
X308Y-979D01*
X309Y-980D01*
X309Y-980D01*
X310Y-980D01*
X310Y-981D01*
X311Y-981D01*
X311Y-981D01*
X312Y-982D01*
X312Y-982D01*
X313Y-982D01*
X313Y-982D01*
X314Y-983D01*
X314Y-983D01*
X315Y-983D01*
X316Y-983D01*
X316Y-983D01*
X317Y-983D01*
X317Y-983D01*
X318Y-984D01*
X318Y-984D01*
X319Y-984D01*
X579D01*
X580Y-983D01*
X580Y-983D01*
X581Y-984D01*
X581Y-984D01*
X584Y-1023D01*
Y-1067D01*
X584D01*
Y-1067D01*
X581Y-1071D01*
X545D01*
Y-1025D01*
X174D01*
Y-1071D01*
X8D01*
Y-849D01*
X38D01*
X41Y-852D01*
X41Y-855D01*
X75D01*
Y-821D01*
X72Y-821D01*
X69Y-822D01*
X65Y-823D01*
X65Y-823D01*
X61Y-816D01*
Y-684D01*
X66Y-682D01*
X137Y-754D01*
X139Y-755D01*
X141Y-756D01*
X142Y-757D01*
X143Y-757D01*
X146Y-758D01*
X148Y-758D01*
X262D01*
X264Y-758D01*
X267Y-757D01*
X268Y-757D01*
X269Y-756D01*
X271Y-755D01*
X273Y-754D01*
X282Y-745D01*
X283Y-743D01*
X284Y-741D01*
X285Y-739D01*
X286Y-736D01*
X286Y-734D01*
Y-698D01*
X286Y-695D01*
X285Y-693D01*
X285Y-692D01*
X284Y-691D01*
X283Y-689D01*
X282Y-687D01*
X274Y-679D01*
X274Y-679D01*
X277Y-679D01*
X281Y-678D01*
X284Y-677D01*
X287Y-676D01*
X290Y-674D01*
X293Y-672D01*
X295Y-670D01*
X297Y-668D01*
X299Y-665D01*
X301Y-662D01*
X302Y-659D01*
X303Y-656D01*
X304Y-652D01*
X304Y-649D01*
X304Y-646D01*
X303Y-642D01*
X302Y-639D01*
X301Y-636D01*
X299Y-633D01*
X297Y-630D01*
X295Y-628D01*
X293Y-626D01*
X290Y-624D01*
X287Y-622D01*
X284Y-621D01*
X281Y-620D01*
X277Y-619D01*
X276Y-617D01*
X315Y-578D01*
X316Y-578D01*
X320Y-579D01*
X323Y-579D01*
X326Y-579D01*
X330Y-578D01*
X333Y-577D01*
X336Y-576D01*
X339Y-574D01*
X342Y-572D01*
X344Y-570D01*
X346Y-568D01*
X348Y-565D01*
X350Y-562D01*
X351Y-559D01*
X352Y-556D01*
X353Y-552D01*
X353Y-549D01*
X353Y-546D01*
X352Y-542D01*
X351Y-539D01*
X350Y-536D01*
X348Y-533D01*
X346Y-530D01*
X344Y-528D01*
X342Y-526D01*
X339Y-524D01*
X336Y-522D01*
X333Y-521D01*
X330Y-520D01*
X326Y-519D01*
X323Y-519D01*
X320Y-519D01*
X316Y-520D01*
X313Y-521D01*
X310Y-522D01*
X307Y-524D01*
X304Y-526D01*
X302Y-528D01*
X300Y-530D01*
X298Y-533D01*
X296Y-536D01*
X295Y-539D01*
X294Y-542D01*
X293Y-546D01*
X293Y-549D01*
X293Y-552D01*
X294Y-556D01*
X294Y-557D01*
X244Y-607D01*
X243Y-607D01*
X240Y-605D01*
X237Y-604D01*
X235Y-604D01*
X232Y-604D01*
Y-600D01*
X235Y-600D01*
X237Y-599D01*
X240Y-598D01*
X243Y-597D01*
X245Y-596D01*
X247Y-594D01*
X249Y-592D01*
X251Y-589D01*
X252Y-587D01*
X253Y-584D01*
X253Y-581D01*
X254Y-578D01*
X253Y-575D01*
X253Y-573D01*
X252Y-570D01*
X251Y-567D01*
X249Y-565D01*
X247Y-563D01*
X245Y-561D01*
X243Y-559D01*
X240Y-558D01*
X237Y-557D01*
X235Y-557D01*
X232Y-556D01*
X208D01*
X205Y-557D01*
X203Y-557D01*
X200Y-558D01*
X199Y-559D01*
X194Y-556D01*
X194Y-556D01*
X193Y-553D01*
X192Y-550D01*
X190Y-547D01*
X188Y-544D01*
X186Y-542D01*
X184Y-540D01*
X181Y-538D01*
X178Y-536D01*
X175Y-535D01*
X172Y-534D01*
X168Y-533D01*
X165Y-533D01*
X162Y-533D01*
X158Y-534D01*
X155Y-535D01*
X152Y-536D01*
X149Y-538D01*
X146Y-540D01*
X144Y-542D01*
X142Y-544D01*
X140Y-547D01*
X139Y-548D01*
X110D01*
X108Y-548D01*
X105Y-549D01*
X104Y-549D01*
X103Y-550D01*
X101Y-551D01*
X99Y-552D01*
X66Y-586D01*
X61Y-584D01*
Y-397D01*
X68D01*
Y-395D01*
X72Y-390D01*
Y-390D01*
X72D01*
Y-390D01*
X74Y-392D01*
X76Y-393D01*
X77Y-393D01*
X78Y-394D01*
X80Y-394D01*
Y-409D01*
X159D01*
Y-350D01*
Y-320D01*
X164Y-319D01*
X166Y-324D01*
X168Y-331D01*
X171Y-337D01*
X174Y-344D01*
X177Y-350D01*
X181Y-356D01*
X185Y-362D01*
X190Y-368D01*
X194Y-373D01*
X199Y-379D01*
X205Y-384D01*
X210Y-388D01*
X216Y-393D01*
X222Y-397D01*
X228Y-401D01*
X234Y-404D01*
X241Y-407D01*
X247Y-410D01*
X254Y-412D01*
X261Y-414D01*
X268Y-416D01*
X275Y-417D01*
X282Y-418D01*
X290Y-419D01*
X297Y-419D01*
X312D01*
Y-281D01*
Y-143D01*
X297D01*
X290Y-143D01*
X282Y-144D01*
X275Y-145D01*
X268Y-146D01*
X261Y-148D01*
X254Y-150D01*
X247Y-152D01*
X241Y-155D01*
X234Y-158D01*
X228Y-162D01*
X222Y-165D01*
X216Y-169D01*
X210Y-174D01*
X205Y-179D01*
X199Y-183D01*
X194Y-189D01*
X190Y-194D01*
X185Y-200D01*
X181Y-206D01*
X177Y-212D01*
X174Y-218D01*
X171Y-225D01*
X168Y-232D01*
X166Y-238D01*
X164Y-243D01*
X159Y-243D01*
Y-232D01*
Y-173D01*
X137D01*
X136Y-168D01*
X136Y-168D01*
X141Y-165D01*
X146Y-162D01*
X150Y-158D01*
X154Y-154D01*
X158Y-150D01*
X162Y-146D01*
X165Y-141D01*
X168Y-136D01*
X170Y-131D01*
X172Y-126D01*
X174Y-121D01*
X176Y-115D01*
X177Y-110D01*
X177Y-104D01*
X177Y-98D01*
X177Y-93D01*
X177Y-87D01*
X176Y-82D01*
X174Y-76D01*
X172Y-71D01*
X170Y-66D01*
X168Y-61D01*
X165Y-56D01*
X162Y-51D01*
X158Y-47D01*
X154Y-43D01*
X150Y-39D01*
X146Y-35D01*
X146Y-33D01*
X192D01*
X250Y-91D01*
X251Y-93D01*
X253Y-96D01*
X255Y-99D01*
X257Y-101D01*
X259Y-103D01*
X262Y-105D01*
X265Y-107D01*
X268Y-108D01*
X269Y-109D01*
X271Y-110D01*
X273Y-111D01*
X275Y-112D01*
X278Y-112D01*
X281Y-112D01*
X283Y-111D01*
X285Y-110D01*
X287Y-109D01*
X288Y-108D01*
X291Y-107D01*
X294Y-105D01*
X297Y-103D01*
X299Y-101D01*
X301Y-99D01*
X303Y-96D01*
X305Y-93D01*
X306Y-90D01*
X307Y-87D01*
X308Y-83D01*
X308Y-80D01*
X308Y-77D01*
X307Y-73D01*
X306Y-70D01*
X305Y-67D01*
X303Y-64D01*
X301Y-61D01*
X299Y-59D01*
X297Y-57D01*
X294Y-55D01*
X291Y-53D01*
X288Y-52D01*
X285Y-51D01*
X281Y-50D01*
X278Y-50D01*
X275Y-50D01*
X271Y-51D01*
X268Y-52D01*
X265Y-53D01*
X262Y-55D01*
X260Y-56D01*
X221Y-16D01*
X223Y-12D01*
X347D01*
Y-65D01*
D02*
G37*
G36*
X364Y-683D02*
X365Y-687D01*
X366Y-690D01*
X367Y-693D01*
X369Y-696D01*
X371Y-699D01*
X373Y-701D01*
X375Y-703D01*
X378Y-705D01*
X381Y-707D01*
X384Y-708D01*
X387Y-709D01*
X391Y-710D01*
X393Y-710D01*
X393Y-715D01*
X391Y-716D01*
X388Y-717D01*
X385Y-719D01*
X382Y-721D01*
X380Y-723D01*
X378Y-725D01*
X376Y-728D01*
X374Y-731D01*
X373Y-734D01*
X372Y-737D01*
X371Y-741D01*
X371Y-744D01*
X371Y-747D01*
X372Y-751D01*
X373Y-754D01*
X374Y-757D01*
X376Y-760D01*
X378Y-763D01*
X380Y-765D01*
X382Y-767D01*
X385Y-769D01*
X388Y-771D01*
X391Y-772D01*
X394Y-773D01*
X398Y-774D01*
X401Y-774D01*
X404Y-774D01*
X408Y-773D01*
X411Y-772D01*
X414Y-771D01*
X417Y-769D01*
X420Y-767D01*
X422Y-765D01*
X424Y-763D01*
X426Y-760D01*
X428Y-757D01*
X429Y-754D01*
X430Y-751D01*
X431Y-747D01*
X431Y-744D01*
X433Y-742D01*
X452D01*
X455Y-742D01*
X458Y-741D01*
X458Y-741D01*
X462Y-744D01*
Y-748D01*
Y-768D01*
Y-788D01*
Y-807D01*
Y-827D01*
Y-827D01*
X511D01*
Y-834D01*
X462D01*
Y-829D01*
X460Y-833D01*
X458Y-834D01*
X456Y-834D01*
X453Y-833D01*
X449Y-832D01*
X446Y-832D01*
X443Y-832D01*
X439Y-833D01*
X436Y-834D01*
X433Y-835D01*
X430Y-837D01*
X427Y-839D01*
X425Y-841D01*
X424Y-841D01*
X420Y-840D01*
Y-820D01*
X340D01*
Y-886D01*
X327D01*
X317Y-875D01*
X317Y-875D01*
X318Y-871D01*
X319Y-868D01*
X319Y-864D01*
X320Y-860D01*
X319Y-856D01*
X319Y-852D01*
X318Y-849D01*
X317Y-845D01*
X315Y-841D01*
X313Y-838D01*
X311Y-835D01*
X308Y-832D01*
X305Y-829D01*
X302Y-827D01*
X299Y-825D01*
X295Y-823D01*
X291Y-822D01*
X288Y-821D01*
X284Y-821D01*
X280Y-820D01*
X276Y-821D01*
X272Y-821D01*
X269Y-822D01*
X265Y-823D01*
X265Y-823D01*
X262Y-819D01*
X268Y-813D01*
X294D01*
X296Y-813D01*
X299Y-812D01*
X300Y-812D01*
X301Y-811D01*
X303Y-810D01*
X305Y-809D01*
X355Y-759D01*
X356Y-757D01*
X357Y-755D01*
X358Y-754D01*
X358Y-753D01*
X359Y-750D01*
X359Y-748D01*
Y-681D01*
X364Y-681D01*
X364Y-683D01*
D02*
G37*
G36*
X716Y-606D02*
X718Y-607D01*
X720Y-609D01*
X723Y-610D01*
X725Y-610D01*
X728Y-611D01*
X729Y-610D01*
X1266D01*
X1267Y-611D01*
X1269Y-610D01*
X1269Y-610D01*
X1328D01*
Y-630D01*
Y-650D01*
Y-669D01*
Y-689D01*
Y-709D01*
Y-729D01*
Y-729D01*
X1378D01*
Y-736D01*
X1328D01*
Y-730D01*
X1326Y-734D01*
X1324Y-736D01*
X1322Y-735D01*
X1319Y-734D01*
X1315Y-733D01*
X1312Y-733D01*
X1309Y-733D01*
X1305Y-734D01*
X1302Y-735D01*
X1299Y-736D01*
X1296Y-738D01*
X1293Y-740D01*
X1291Y-742D01*
X1289Y-744D01*
X1287Y-747D01*
X1285Y-750D01*
X1284Y-753D01*
X1283Y-756D01*
X1282Y-760D01*
X1282Y-763D01*
X1282Y-766D01*
X1283Y-770D01*
X1284Y-773D01*
X1285Y-776D01*
X1287Y-779D01*
X1289Y-782D01*
X1291Y-784D01*
X1293Y-786D01*
X1296Y-788D01*
X1299Y-790D01*
X1302Y-791D01*
X1305Y-792D01*
X1309Y-793D01*
X1312Y-793D01*
X1315Y-793D01*
X1319Y-792D01*
X1322Y-791D01*
X1324Y-790D01*
X1326Y-792D01*
X1328Y-796D01*
Y-807D01*
Y-827D01*
Y-847D01*
Y-866D01*
Y-886D01*
Y-906D01*
Y-925D01*
Y-925D01*
X1378D01*
Y-934D01*
X1328D01*
Y-929D01*
X1324Y-931D01*
X1207Y-814D01*
X1205Y-813D01*
X1203Y-812D01*
X1202Y-811D01*
X1201Y-811D01*
X1198Y-810D01*
X1196Y-810D01*
X1179D01*
X1178Y-809D01*
X1176Y-806D01*
X1174Y-804D01*
X1172Y-802D01*
X1169Y-800D01*
X1166Y-798D01*
X1163Y-797D01*
X1160Y-796D01*
X1156Y-795D01*
X1153Y-795D01*
X1150Y-795D01*
X1146Y-796D01*
X1145Y-796D01*
X1055Y-705D01*
X1053Y-704D01*
X1051Y-703D01*
X1050Y-702D01*
X1049Y-702D01*
X1046Y-701D01*
X1044Y-701D01*
X979D01*
X941Y-663D01*
X939Y-661D01*
X937Y-660D01*
X936Y-659D01*
X935Y-659D01*
X933Y-658D01*
X930Y-658D01*
X561D01*
Y-657D01*
Y-657D01*
X511D01*
Y-650D01*
X561D01*
Y-650D01*
Y-630D01*
Y-610D01*
Y-591D01*
X701D01*
X716Y-606D01*
D02*
G37*
G36*
X1563Y-595D02*
X1558Y-597D01*
X1552Y-590D01*
X1550Y-589D01*
X1548Y-588D01*
X1547Y-587D01*
X1546Y-587D01*
X1543Y-586D01*
X1541Y-586D01*
X1538D01*
X1534Y-583D01*
X1533Y-582D01*
X1535Y-579D01*
X1537Y-575D01*
X1538Y-571D01*
X1539Y-568D01*
X1539Y-564D01*
X1540Y-560D01*
X1539Y-556D01*
X1539Y-552D01*
X1538Y-549D01*
X1537Y-545D01*
X1537Y-545D01*
X1552Y-530D01*
X1553Y-528D01*
X1554Y-526D01*
X1555Y-524D01*
X1555Y-524D01*
X1556Y-521D01*
X1556Y-519D01*
Y-330D01*
X1556Y-328D01*
X1555Y-325D01*
X1555Y-324D01*
X1554Y-323D01*
X1553Y-321D01*
X1552Y-319D01*
X1530Y-297D01*
X1528Y-296D01*
X1526Y-295D01*
X1525Y-294D01*
X1524Y-294D01*
X1522Y-293D01*
X1522Y-293D01*
X1525Y-291D01*
X1528Y-288D01*
X1531Y-285D01*
X1533Y-282D01*
X1535Y-279D01*
X1537Y-275D01*
X1538Y-271D01*
X1539Y-268D01*
X1539Y-265D01*
X1461D01*
X1461Y-268D01*
X1462Y-271D01*
X1463Y-275D01*
X1465Y-279D01*
X1467Y-282D01*
X1469Y-285D01*
X1472Y-288D01*
X1472Y-288D01*
X1471Y-293D01*
X1452D01*
X1443Y-284D01*
Y-223D01*
X1443Y-221D01*
X1442Y-218D01*
X1441Y-216D01*
X1440Y-214D01*
X1439Y-212D01*
X1437Y-211D01*
X1435Y-210D01*
X1433Y-209D01*
X1430Y-208D01*
X1428Y-208D01*
X1279D01*
X1277Y-208D01*
X1274Y-209D01*
X1273Y-209D01*
X1272Y-210D01*
X1270Y-211D01*
X1268Y-212D01*
X1182Y-299D01*
X1181Y-299D01*
X1177Y-298D01*
X1174Y-298D01*
X1171Y-298D01*
X1167Y-299D01*
X1164Y-300D01*
X1161Y-301D01*
X1158Y-303D01*
X1155Y-305D01*
X1153Y-307D01*
X1151Y-309D01*
X1149Y-312D01*
X1147Y-315D01*
X1146Y-318D01*
X1145Y-321D01*
X1144Y-325D01*
X1144Y-328D01*
X1144Y-331D01*
X1145Y-335D01*
X1146Y-338D01*
X1147Y-341D01*
X1149Y-344D01*
X1151Y-347D01*
X1153Y-349D01*
X1155Y-351D01*
X1158Y-353D01*
X1161Y-355D01*
X1164Y-356D01*
X1167Y-357D01*
X1171Y-358D01*
X1174Y-358D01*
X1177Y-358D01*
X1181Y-357D01*
X1184Y-356D01*
X1187Y-355D01*
X1190Y-353D01*
X1193Y-351D01*
X1195Y-349D01*
X1197Y-347D01*
X1199Y-344D01*
X1201Y-341D01*
X1202Y-338D01*
X1203Y-335D01*
X1204Y-331D01*
X1204Y-328D01*
X1204Y-325D01*
X1203Y-321D01*
X1203Y-320D01*
X1268Y-256D01*
X1273Y-256D01*
X1273Y-257D01*
X1273Y-260D01*
X1273Y-263D01*
X1274Y-267D01*
X1275Y-270D01*
X1276Y-273D01*
X1278Y-276D01*
X1280Y-279D01*
X1282Y-281D01*
X1284Y-283D01*
X1287Y-285D01*
X1290Y-287D01*
X1293Y-288D01*
X1296Y-289D01*
X1300Y-290D01*
X1303Y-290D01*
X1306Y-290D01*
X1307Y-290D01*
X1310Y-310D01*
Y-331D01*
X1310Y-333D01*
X1311Y-336D01*
X1312Y-338D01*
X1312Y-339D01*
X1313Y-340D01*
X1315Y-342D01*
X1323Y-350D01*
X1325Y-351D01*
X1327Y-353D01*
X1328Y-353D01*
Y-354D01*
Y-374D01*
Y-394D01*
Y-414D01*
Y-433D01*
Y-433D01*
X1378D01*
Y-441D01*
X1328D01*
Y-441D01*
Y-442D01*
X964D01*
X874Y-352D01*
X875Y-351D01*
X875Y-347D01*
X875Y-344D01*
X875Y-341D01*
X875Y-337D01*
X874Y-334D01*
X872Y-331D01*
X871Y-328D01*
X869Y-325D01*
X867Y-323D01*
X864Y-321D01*
X861Y-319D01*
X858Y-317D01*
X855Y-316D01*
X852Y-315D01*
X849Y-314D01*
X845Y-314D01*
X842Y-314D01*
X839Y-315D01*
X835Y-316D01*
X832Y-317D01*
X829Y-319D01*
X827Y-321D01*
X824Y-323D01*
X822Y-325D01*
X820Y-328D01*
X818Y-331D01*
X817Y-334D01*
X816Y-337D01*
X816Y-341D01*
X815Y-344D01*
X816Y-347D01*
X816Y-351D01*
X817Y-354D01*
X818Y-357D01*
X820Y-360D01*
X822Y-363D01*
X824Y-365D01*
X827Y-367D01*
X829Y-369D01*
X832Y-371D01*
X835Y-372D01*
X839Y-373D01*
X842Y-374D01*
X845Y-374D01*
X849Y-374D01*
X852Y-373D01*
X853Y-373D01*
X947Y-467D01*
X949Y-469D01*
X951Y-470D01*
X953Y-471D01*
X953Y-471D01*
X956Y-472D01*
X958Y-472D01*
X1328D01*
Y-473D01*
Y-492D01*
Y-512D01*
Y-532D01*
Y-551D01*
Y-571D01*
Y-579D01*
X1278D01*
X1273Y-568D01*
X1273Y-567D01*
X1275Y-564D01*
X1276Y-561D01*
X1277Y-558D01*
X1278Y-555D01*
X1278Y-551D01*
X1278Y-548D01*
X1277Y-544D01*
X1276Y-541D01*
X1275Y-538D01*
X1273Y-535D01*
X1272Y-532D01*
X1269Y-530D01*
X1267Y-528D01*
X1264Y-526D01*
X1261Y-524D01*
X1258Y-523D01*
X1255Y-522D01*
X1251Y-521D01*
X1248Y-521D01*
X1245Y-521D01*
X1241Y-522D01*
X1238Y-523D01*
X1235Y-524D01*
X1232Y-526D01*
X1229Y-528D01*
X1227Y-530D01*
X1225Y-532D01*
X1223Y-535D01*
X1221Y-538D01*
X1220Y-541D01*
X1219Y-544D01*
X1218Y-548D01*
X1218Y-551D01*
X1218Y-555D01*
X1219Y-558D01*
X1220Y-561D01*
X1221Y-564D01*
X1223Y-567D01*
X1225Y-570D01*
X1227Y-572D01*
X1228Y-574D01*
X1227Y-578D01*
X1227Y-579D01*
X734D01*
X719Y-563D01*
X717Y-562D01*
X715Y-561D01*
X713Y-560D01*
X711Y-559D01*
X708Y-559D01*
X707Y-559D01*
X579D01*
Y-333D01*
X582Y-333D01*
X585Y-332D01*
X589Y-332D01*
X592Y-330D01*
X595Y-329D01*
X597Y-327D01*
X600Y-324D01*
X602Y-322D01*
X604Y-319D01*
X606Y-316D01*
X607Y-313D01*
X608Y-310D01*
X609Y-307D01*
X609Y-303D01*
X609Y-300D01*
X608Y-296D01*
X607Y-293D01*
X606Y-290D01*
X604Y-287D01*
X602Y-284D01*
X600Y-282D01*
X597Y-280D01*
X595Y-278D01*
X592Y-276D01*
X589Y-275D01*
X585Y-274D01*
X582Y-273D01*
X579Y-273D01*
X575Y-273D01*
X572Y-274D01*
X569Y-275D01*
X566Y-276D01*
X565Y-276D01*
X561Y-274D01*
Y-256D01*
Y-244D01*
X511D01*
Y-240D01*
X506D01*
Y-224D01*
X462D01*
X462Y-224D01*
Y-224D01*
X462Y-224D01*
X459Y-218D01*
X456Y-212D01*
X452Y-206D01*
X448Y-200D01*
X443Y-194D01*
X439Y-189D01*
X434Y-183D01*
X429Y-179D01*
X423Y-174D01*
X417Y-169D01*
X411Y-165D01*
X405Y-162D01*
X399Y-158D01*
X398Y-157D01*
X397Y-156D01*
X397D01*
D01*
D01*
D01*
X561D01*
Y-92D01*
X557D01*
Y-65D01*
Y-12D01*
X604D01*
X606Y-16D01*
X572Y-50D01*
X571Y-52D01*
X570Y-54D01*
X569Y-55D01*
X569Y-56D01*
X568Y-59D01*
X568Y-61D01*
Y-202D01*
X568Y-204D01*
X569Y-207D01*
X569Y-208D01*
X570Y-209D01*
X571Y-211D01*
X572Y-213D01*
X589Y-230D01*
X641Y-304D01*
X642Y-305D01*
X642Y-305D01*
X643Y-305D01*
X643Y-306D01*
X643Y-306D01*
X644Y-307D01*
X644Y-307D01*
X644Y-307D01*
X645Y-308D01*
X646Y-308D01*
X646Y-308D01*
X646Y-309D01*
X647Y-309D01*
X648Y-309D01*
X648Y-309D01*
X649Y-309D01*
X649Y-310D01*
X650Y-310D01*
X741Y-330D01*
X741Y-330D01*
X742Y-330D01*
X742Y-330D01*
X743Y-330D01*
X744Y-330D01*
X744Y-330D01*
X745Y-330D01*
X746Y-330D01*
X746Y-330D01*
X746Y-330D01*
X747Y-330D01*
X748Y-330D01*
X748Y-329D01*
X749Y-329D01*
X749Y-329D01*
X750Y-329D01*
X751Y-329D01*
X751Y-328D01*
X752Y-328D01*
X752Y-328D01*
X753Y-327D01*
X753Y-327D01*
X754Y-327D01*
X754Y-326D01*
X754Y-326D01*
X755Y-326D01*
X778Y-302D01*
X778Y-302D01*
X778Y-302D01*
X779Y-301D01*
X780Y-300D01*
X780Y-300D01*
X780Y-300D01*
X781Y-299D01*
X781Y-298D01*
X781Y-298D01*
X781Y-298D01*
X782Y-297D01*
X782Y-296D01*
X782Y-296D01*
X782Y-296D01*
X782Y-295D01*
X783Y-294D01*
X783Y-294D01*
X783Y-294D01*
X783Y-292D01*
X783Y-291D01*
X783Y-291D01*
X783Y-291D01*
X782Y-226D01*
X791Y-217D01*
X948D01*
X953Y-220D01*
X953Y-221D01*
X952Y-224D01*
X951Y-227D01*
X950Y-230D01*
X950Y-231D01*
X945Y-233D01*
X945Y-233D01*
X942Y-231D01*
X939Y-229D01*
X936Y-228D01*
X933Y-227D01*
X929Y-226D01*
X926Y-226D01*
X923Y-226D01*
X919Y-227D01*
X916Y-228D01*
X913Y-229D01*
X910Y-231D01*
X907Y-233D01*
X905Y-235D01*
X903Y-237D01*
X901Y-240D01*
X899Y-243D01*
X898Y-246D01*
X897Y-249D01*
X896Y-253D01*
X896Y-256D01*
X896Y-259D01*
X897Y-263D01*
X898Y-266D01*
X899Y-269D01*
X901Y-272D01*
X903Y-275D01*
X905Y-277D01*
X907Y-279D01*
X910Y-281D01*
X913Y-283D01*
X916Y-284D01*
X919Y-285D01*
X923Y-286D01*
X926Y-286D01*
X929Y-286D01*
X933Y-285D01*
X934Y-285D01*
X973Y-325D01*
X975Y-326D01*
X977Y-327D01*
X978Y-328D01*
X979Y-328D01*
X982Y-329D01*
X984Y-329D01*
X992D01*
X994Y-334D01*
X994Y-334D01*
X992Y-337D01*
X990Y-340D01*
X989Y-343D01*
X988Y-346D01*
X987Y-350D01*
X987Y-353D01*
X987Y-356D01*
X988Y-360D01*
X989Y-363D01*
X990Y-366D01*
X992Y-369D01*
X994Y-372D01*
X996Y-374D01*
X998Y-376D01*
X1001Y-378D01*
X1004Y-380D01*
X1007Y-381D01*
X1010Y-382D01*
X1014Y-383D01*
X1017Y-383D01*
X1020Y-383D01*
X1024Y-382D01*
X1027Y-381D01*
X1030Y-380D01*
X1033Y-378D01*
X1036Y-376D01*
X1038Y-374D01*
X1040Y-372D01*
X1042Y-369D01*
X1044Y-366D01*
X1045Y-363D01*
X1046Y-360D01*
X1047Y-356D01*
X1047Y-353D01*
X1047Y-350D01*
X1046Y-346D01*
X1046Y-345D01*
X1182Y-210D01*
X1183Y-208D01*
X1184Y-206D01*
X1185Y-205D01*
X1185Y-204D01*
X1186Y-201D01*
X1186Y-201D01*
X1285D01*
Y-152D01*
Y-102D01*
X938D01*
Y-152D01*
X931D01*
Y-102D01*
X930D01*
Y-90D01*
X935Y-88D01*
X935Y-88D01*
X938Y-90D01*
X941Y-92D01*
X945Y-94D01*
X948Y-95D01*
X952Y-96D01*
X956Y-96D01*
X960Y-97D01*
X964Y-96D01*
X968Y-96D01*
X971Y-95D01*
X975Y-94D01*
X978Y-92D01*
X982Y-90D01*
X985Y-88D01*
X988Y-85D01*
X990Y-82D01*
X993Y-79D01*
X995Y-76D01*
X996Y-72D01*
X998Y-69D01*
X999Y-65D01*
X999Y-61D01*
X999Y-57D01*
X999Y-53D01*
X999Y-49D01*
X998Y-46D01*
X996Y-42D01*
X995Y-38D01*
X993Y-35D01*
X990Y-32D01*
X988Y-29D01*
X985Y-26D01*
X982Y-24D01*
X978Y-22D01*
X975Y-21D01*
X971Y-19D01*
X968Y-18D01*
X964Y-18D01*
X960Y-18D01*
X956Y-18D01*
X952Y-18D01*
X948Y-19D01*
X945Y-21D01*
X945Y-21D01*
X940Y-16D01*
X942Y-12D01*
X1563D01*
Y-595D01*
D02*
G37*
G36*
X832Y-744D02*
X834Y-746D01*
X836Y-747D01*
X838Y-748D01*
X840Y-749D01*
X843Y-749D01*
X930D01*
X932Y-753D01*
X932Y-755D01*
X931Y-758D01*
X930Y-762D01*
X930Y-765D01*
X930Y-768D01*
X931Y-772D01*
X932Y-775D01*
X933Y-778D01*
X935Y-781D01*
X937Y-784D01*
X939Y-786D01*
X941Y-788D01*
X944Y-790D01*
X947Y-792D01*
X950Y-793D01*
X953Y-794D01*
X957Y-795D01*
X960Y-795D01*
X963Y-795D01*
X967Y-794D01*
X968Y-794D01*
X987Y-813D01*
Y-911D01*
X985Y-913D01*
X983Y-915D01*
X982Y-917D01*
X982Y-918D01*
X981Y-919D01*
X981Y-921D01*
X976Y-921D01*
X976Y-921D01*
X976Y-920D01*
X974Y-917D01*
X972Y-915D01*
X970Y-912D01*
X967Y-910D01*
X964Y-908D01*
X962Y-906D01*
X958Y-905D01*
X955Y-904D01*
X952Y-904D01*
X948Y-903D01*
X945Y-904D01*
X943Y-904D01*
X939Y-901D01*
X939Y-899D01*
X938Y-896D01*
X937Y-892D01*
X936Y-889D01*
X934Y-886D01*
X932Y-884D01*
X930Y-881D01*
X928Y-879D01*
X925Y-877D01*
X922Y-875D01*
X919Y-874D01*
X916Y-873D01*
X912Y-873D01*
X909Y-872D01*
X906Y-873D01*
X902Y-873D01*
X899Y-874D01*
X896Y-875D01*
X893Y-877D01*
X890Y-879D01*
X888Y-881D01*
X885Y-884D01*
X883Y-886D01*
X882Y-887D01*
X879Y-885D01*
X876Y-883D01*
X873Y-882D01*
X870Y-881D01*
X866Y-880D01*
X863Y-880D01*
X860Y-880D01*
X856Y-881D01*
X853Y-882D01*
X850Y-883D01*
X847Y-885D01*
X844Y-887D01*
X838Y-884D01*
X835Y-882D01*
X833Y-880D01*
X830Y-878D01*
X826Y-877D01*
X823Y-876D01*
X820Y-875D01*
X817Y-875D01*
X813Y-875D01*
X810Y-876D01*
X807Y-877D01*
X803Y-878D01*
X801Y-880D01*
X798Y-882D01*
X795Y-884D01*
X793Y-886D01*
X791Y-889D01*
X789Y-892D01*
X788Y-895D01*
X787Y-898D01*
X787Y-902D01*
X786Y-905D01*
X787Y-908D01*
X787Y-912D01*
X788Y-915D01*
X789Y-918D01*
X791Y-921D01*
X793Y-924D01*
X795Y-926D01*
X798Y-928D01*
X801Y-930D01*
X801Y-931D01*
Y-968D01*
X781D01*
Y-1018D01*
X773D01*
Y-968D01*
X611D01*
X610Y-963D01*
X626Y-959D01*
X626Y-959D01*
X627Y-959D01*
X627Y-959D01*
X628Y-959D01*
X629Y-958D01*
X629Y-958D01*
X630Y-958D01*
X630Y-958D01*
X631Y-957D01*
X631Y-957D01*
X632Y-957D01*
X632Y-956D01*
X632Y-956D01*
X633Y-955D01*
X782Y-800D01*
X783Y-800D01*
X783Y-799D01*
X783Y-799D01*
X783Y-799D01*
X784Y-798D01*
X784Y-797D01*
X784Y-797D01*
X785Y-797D01*
X785Y-796D01*
X785Y-795D01*
X785Y-795D01*
X785Y-794D01*
X786Y-793D01*
X786Y-792D01*
X786Y-792D01*
X786Y-792D01*
X786Y-791D01*
X786Y-790D01*
Y-751D01*
X787Y-750D01*
X790Y-748D01*
X792Y-746D01*
X794Y-744D01*
X796Y-741D01*
X798Y-738D01*
X799Y-735D01*
X800Y-732D01*
X801Y-728D01*
X801Y-725D01*
X801Y-722D01*
X801Y-720D01*
X805Y-718D01*
X832Y-744D01*
D02*
G37*
%LPC*%
G36*
X98Y-905D02*
X93Y-906D01*
X87Y-906D01*
X82Y-907D01*
X76Y-909D01*
X71Y-910D01*
X66Y-912D01*
X61Y-915D01*
X56Y-918D01*
X51Y-921D01*
X47Y-925D01*
X43Y-928D01*
X39Y-933D01*
X35Y-937D01*
X32Y-942D01*
X29Y-946D01*
X27Y-951D01*
X24Y-957D01*
X23Y-962D01*
X21Y-967D01*
X20Y-973D01*
X20Y-979D01*
X19Y-984D01*
X20Y-990D01*
X20Y-995D01*
X21Y-1001D01*
X23Y-1006D01*
X24Y-1012D01*
X27Y-1017D01*
X29Y-1022D01*
X32Y-1027D01*
X35Y-1032D01*
X39Y-1036D01*
X43Y-1040D01*
X47Y-1044D01*
X51Y-1047D01*
X56Y-1051D01*
X61Y-1054D01*
X66Y-1056D01*
X71Y-1058D01*
X76Y-1060D01*
X82Y-1061D01*
X87Y-1062D01*
X93Y-1063D01*
X98Y-1063D01*
X104Y-1063D01*
X110Y-1062D01*
X115Y-1061D01*
X121Y-1060D01*
X126Y-1058D01*
X131Y-1056D01*
X136Y-1054D01*
X141Y-1051D01*
X146Y-1047D01*
X150Y-1044D01*
X154Y-1040D01*
X158Y-1036D01*
X162Y-1032D01*
X165Y-1027D01*
X168Y-1022D01*
X170Y-1017D01*
X172Y-1012D01*
X174Y-1006D01*
X176Y-1001D01*
X177Y-995D01*
X177Y-990D01*
X177Y-984D01*
X177Y-979D01*
X177Y-973D01*
X176Y-967D01*
X174Y-962D01*
X172Y-957D01*
X170Y-951D01*
X168Y-946D01*
X165Y-942D01*
X162Y-937D01*
X158Y-933D01*
X154Y-928D01*
X150Y-925D01*
X146Y-921D01*
X141Y-918D01*
X136Y-915D01*
X131Y-912D01*
X126Y-910D01*
X121Y-909D01*
X115Y-907D01*
X110Y-906D01*
X104Y-906D01*
X98Y-905D01*
D02*
G37*
G36*
X435Y-556D02*
X429D01*
X426Y-557D01*
X423Y-557D01*
X420Y-558D01*
X418Y-559D01*
X415Y-561D01*
X413Y-563D01*
X411Y-565D01*
X410Y-567D01*
X408Y-570D01*
X408Y-573D01*
X407Y-573D01*
X435D01*
Y-556D01*
D02*
G37*
G36*
X75Y-865D02*
X41D01*
X41Y-868D01*
X42Y-871D01*
X43Y-875D01*
X45Y-879D01*
X47Y-882D01*
X49Y-885D01*
X52Y-888D01*
X55Y-891D01*
X58Y-893D01*
X61Y-895D01*
X65Y-897D01*
X69Y-898D01*
X72Y-899D01*
X75Y-899D01*
Y-865D01*
D02*
G37*
G36*
X119D02*
X85D01*
Y-899D01*
X88Y-899D01*
X91Y-898D01*
X95Y-897D01*
X99Y-895D01*
X102Y-893D01*
X105Y-891D01*
X108Y-888D01*
X111Y-885D01*
X113Y-882D01*
X115Y-879D01*
X117Y-875D01*
X118Y-871D01*
X119Y-868D01*
X119Y-865D01*
D02*
G37*
G36*
X85Y-821D02*
Y-855D01*
X119D01*
X119Y-852D01*
X118Y-849D01*
X117Y-845D01*
X115Y-841D01*
X113Y-838D01*
X111Y-835D01*
X108Y-832D01*
X105Y-829D01*
X102Y-827D01*
X99Y-825D01*
X95Y-823D01*
X91Y-822D01*
X88Y-821D01*
X85Y-821D01*
D02*
G37*
G36*
X1495Y-221D02*
X1492Y-221D01*
X1489Y-222D01*
X1485Y-223D01*
X1481Y-225D01*
X1478Y-227D01*
X1475Y-229D01*
X1472Y-232D01*
X1469Y-235D01*
X1467Y-238D01*
X1465Y-241D01*
X1463Y-245D01*
X1462Y-249D01*
X1461Y-252D01*
X1461Y-255D01*
X1495D01*
Y-221D01*
D02*
G37*
G36*
X1060Y-18D02*
X1056Y-18D01*
X1052Y-18D01*
X1048Y-19D01*
X1045Y-21D01*
X1041Y-22D01*
X1038Y-24D01*
X1035Y-26D01*
X1032Y-29D01*
X1029Y-32D01*
X1027Y-35D01*
X1025Y-38D01*
X1023Y-42D01*
X1022Y-46D01*
X1021Y-49D01*
X1020Y-53D01*
X1020Y-57D01*
X1020Y-61D01*
X1021Y-65D01*
X1022Y-69D01*
X1023Y-72D01*
X1025Y-76D01*
X1027Y-79D01*
X1029Y-82D01*
X1032Y-85D01*
X1035Y-88D01*
X1038Y-90D01*
X1041Y-92D01*
X1045Y-94D01*
X1048Y-95D01*
X1052Y-96D01*
X1056Y-96D01*
X1060Y-97D01*
X1064Y-96D01*
X1068Y-96D01*
X1071Y-95D01*
X1075Y-94D01*
X1078Y-92D01*
X1082Y-90D01*
X1085Y-88D01*
X1088Y-85D01*
X1090Y-82D01*
X1093Y-79D01*
X1095Y-76D01*
X1096Y-72D01*
X1098Y-69D01*
X1099Y-65D01*
X1099Y-61D01*
X1099Y-57D01*
X1099Y-53D01*
X1099Y-49D01*
X1098Y-46D01*
X1096Y-42D01*
X1095Y-38D01*
X1093Y-35D01*
X1090Y-32D01*
X1088Y-29D01*
X1085Y-26D01*
X1082Y-24D01*
X1078Y-22D01*
X1075Y-21D01*
X1071Y-19D01*
X1068Y-18D01*
X1064Y-18D01*
X1060Y-18D01*
D02*
G37*
G36*
X1305Y-102D02*
X1294D01*
Y-147D01*
X1305D01*
Y-102D01*
D02*
G37*
G36*
X1299Y-18D02*
X1220D01*
Y-97D01*
X1299D01*
Y-18D01*
D02*
G37*
G36*
X1160Y-18D02*
X1156Y-18D01*
X1152Y-18D01*
X1148Y-19D01*
X1145Y-21D01*
X1141Y-22D01*
X1138Y-24D01*
X1135Y-26D01*
X1132Y-29D01*
X1129Y-32D01*
X1127Y-35D01*
X1125Y-38D01*
X1123Y-42D01*
X1122Y-46D01*
X1121Y-49D01*
X1120Y-53D01*
X1120Y-57D01*
X1120Y-61D01*
X1121Y-65D01*
X1122Y-69D01*
X1123Y-72D01*
X1125Y-76D01*
X1127Y-79D01*
X1129Y-82D01*
X1132Y-85D01*
X1135Y-88D01*
X1138Y-90D01*
X1141Y-92D01*
X1145Y-94D01*
X1148Y-95D01*
X1152Y-96D01*
X1156Y-96D01*
X1160Y-97D01*
X1164Y-96D01*
X1168Y-96D01*
X1171Y-95D01*
X1175Y-94D01*
X1178Y-92D01*
X1182Y-90D01*
X1185Y-88D01*
X1188Y-85D01*
X1190Y-82D01*
X1193Y-79D01*
X1195Y-76D01*
X1196Y-72D01*
X1198Y-69D01*
X1199Y-65D01*
X1199Y-61D01*
X1199Y-57D01*
X1199Y-53D01*
X1199Y-49D01*
X1198Y-46D01*
X1196Y-42D01*
X1195Y-38D01*
X1193Y-35D01*
X1190Y-32D01*
X1188Y-29D01*
X1185Y-26D01*
X1182Y-24D01*
X1178Y-22D01*
X1175Y-21D01*
X1171Y-19D01*
X1168Y-18D01*
X1164Y-18D01*
X1160Y-18D01*
D02*
G37*
G36*
X561Y-224D02*
X516D01*
Y-235D01*
X561D01*
Y-224D01*
D02*
G37*
G36*
X1505Y-221D02*
Y-255D01*
X1539D01*
X1539Y-252D01*
X1538Y-249D01*
X1537Y-245D01*
X1535Y-241D01*
X1533Y-238D01*
X1531Y-235D01*
X1528Y-232D01*
X1525Y-229D01*
X1522Y-227D01*
X1519Y-225D01*
X1515Y-223D01*
X1511Y-222D01*
X1508Y-221D01*
X1505Y-221D01*
D02*
G37*
G36*
X1476Y-19D02*
X1471Y-20D01*
X1465Y-20D01*
X1460Y-21D01*
X1454Y-23D01*
X1449Y-24D01*
X1444Y-27D01*
X1439Y-29D01*
X1434Y-32D01*
X1429Y-35D01*
X1425Y-39D01*
X1421Y-43D01*
X1417Y-47D01*
X1413Y-51D01*
X1410Y-56D01*
X1407Y-61D01*
X1405Y-66D01*
X1402Y-71D01*
X1401Y-76D01*
X1399Y-82D01*
X1398Y-87D01*
X1398Y-93D01*
X1397Y-98D01*
X1398Y-104D01*
X1398Y-110D01*
X1399Y-115D01*
X1401Y-121D01*
X1402Y-126D01*
X1405Y-131D01*
X1407Y-136D01*
X1410Y-141D01*
X1413Y-146D01*
X1417Y-150D01*
X1421Y-154D01*
X1425Y-158D01*
X1429Y-162D01*
X1434Y-165D01*
X1439Y-168D01*
X1444Y-170D01*
X1449Y-172D01*
X1454Y-174D01*
X1460Y-176D01*
X1465Y-177D01*
X1471Y-177D01*
X1476Y-177D01*
X1482Y-177D01*
X1488Y-177D01*
X1493Y-176D01*
X1499Y-174D01*
X1504Y-172D01*
X1509Y-170D01*
X1514Y-168D01*
X1519Y-165D01*
X1524Y-162D01*
X1528Y-158D01*
X1532Y-154D01*
X1536Y-150D01*
X1540Y-146D01*
X1543Y-141D01*
X1546Y-136D01*
X1548Y-131D01*
X1550Y-126D01*
X1552Y-121D01*
X1554Y-115D01*
X1555Y-110D01*
X1555Y-104D01*
X1555Y-98D01*
X1555Y-93D01*
X1555Y-87D01*
X1554Y-82D01*
X1552Y-76D01*
X1550Y-71D01*
X1548Y-66D01*
X1546Y-61D01*
X1543Y-56D01*
X1540Y-51D01*
X1536Y-47D01*
X1532Y-43D01*
X1528Y-39D01*
X1524Y-35D01*
X1519Y-32D01*
X1514Y-29D01*
X1509Y-27D01*
X1504Y-24D01*
X1499Y-23D01*
X1493Y-21D01*
X1488Y-20D01*
X1482Y-20D01*
X1476Y-19D01*
D02*
G37*
G36*
X1305Y-157D02*
X1294D01*
Y-201D01*
X1305D01*
Y-157D01*
D02*
G37*
%LPD*%
D11*
X1260Y-57D02*
D03*
X1500Y-860D02*
D03*
X380D02*
D03*
D14*
X40Y-371D02*
D03*
Y-308D02*
D03*
D23*
X1130Y-921D02*
X1131Y-961D01*
X622Y-965D02*
X634Y-967D01*
X591Y-953D02*
X622Y-945D01*
X579Y-969D02*
X591Y-953D01*
X767Y-220D02*
X768Y-291D01*
X803Y-311D02*
X863Y-295D01*
X638Y-315D02*
X748Y-346D01*
X581Y-236D02*
X638Y-315D01*
X654Y-295D02*
X744Y-315D01*
X768Y-291D01*
X1436Y-196D02*
X1447Y-207D01*
X1500Y-260D01*
X1289Y-152D02*
Y-101D01*
Y-196D02*
Y-152D01*
X1229Y-207D02*
X1447D01*
X1223Y-437D02*
X1378D01*
X986D02*
X1223D01*
X1142Y-356D02*
X1223Y-437D01*
X1060Y-654D02*
X1327Y-921D01*
X1335Y-929D01*
X1327Y-921D02*
Y-840D01*
Y-929D02*
Y-921D01*
X1335Y-929D02*
X1378D01*
X1327D02*
X1335D01*
X922Y-857D02*
X935D01*
X806D02*
X922D01*
X909Y-844D02*
X922Y-857D01*
X965Y-899D01*
X979Y-914D01*
X748Y-346D02*
X803Y-311D01*
X511Y-240D02*
X581Y-236D01*
X376Y-240D02*
X511D01*
X372D02*
X376D01*
X262Y-130D02*
X365Y-233D01*
X372Y-240D01*
X376Y-281D02*
Y-240D01*
X415Y-578D02*
X440D01*
X358D02*
X415D01*
X317Y-480D02*
X415Y-578D01*
X1060Y-654D02*
X1174D01*
X511D02*
X1060D01*
X466D02*
X511D01*
X763Y-900D02*
X806Y-857D01*
X696Y-967D02*
X763Y-900D01*
X634Y-967D02*
X757Y-844D01*
X696Y-967D02*
X777D01*
X634D02*
X696D01*
X602Y-969D02*
X622Y-965D01*
X304Y-986D02*
X600D01*
X602Y-969D01*
X600Y-1018D02*
Y-986D01*
X192Y-586D02*
Y-578D01*
X771Y-790D02*
Y-725D01*
X622Y-945D02*
X771Y-790D01*
X319Y-969D02*
X579D01*
X239Y-878D02*
X319Y-969D01*
X239Y-878D02*
Y-821D01*
X262Y-798D01*
X294D01*
X344Y-748D01*
Y-649D01*
X367Y-626D01*
X440D01*
X974Y-1018D02*
Y-975D01*
X979Y-970D01*
Y-914D01*
X757Y-844D02*
X909D01*
X777Y-1018D02*
Y-967D01*
X223Y-906D02*
X304Y-986D01*
X126Y-906D02*
X223D01*
X80Y-860D02*
X126Y-906D01*
X863Y-295D02*
X986Y-437D01*
X1281Y-794D02*
X1327Y-840D01*
X1281Y-794D02*
Y-745D01*
X1294Y-732D01*
X1343D01*
X1343Y-732D01*
X1378D01*
X1174Y-654D02*
X1203Y-683D01*
X220Y-673D02*
X246D01*
X271Y-698D01*
Y-734D02*
Y-698D01*
X262Y-743D02*
X271Y-734D01*
X148Y-743D02*
X262D01*
X71Y-666D02*
X148Y-743D01*
X71Y-666D02*
Y-602D01*
X110Y-563D01*
X165D01*
X895Y-916D02*
X909Y-902D01*
X895Y-1018D02*
Y-916D01*
X1174Y-328D02*
X1279Y-223D01*
X1428D01*
Y-290D02*
Y-223D01*
Y-290D02*
X1446Y-308D01*
X1519D01*
X1541Y-330D01*
Y-519D02*
Y-330D01*
X1500Y-560D02*
X1541Y-519D01*
X1312Y-763D02*
X1323Y-752D01*
X1378D01*
X1459Y-401D02*
X1500Y-360D01*
X1459Y-582D02*
Y-401D01*
Y-582D02*
X1478Y-601D01*
X1541D01*
X1559Y-619D01*
Y-1016D02*
Y-619D01*
X1510Y-1065D02*
X1559Y-1016D01*
X1436Y-1065D02*
X1510D01*
X1196Y-825D02*
X1436Y-1065D01*
X1153Y-825D02*
X1196D01*
X926Y-256D02*
X984Y-314D01*
X1012D01*
X1072Y-254D01*
Y-152D01*
X1053Y-229D02*
Y-152D01*
X1012Y-270D02*
X1053Y-229D01*
X979Y-237D02*
X998D01*
X1033Y-202D01*
Y-152D01*
X1151Y-1018D02*
X1157Y-913D01*
X461Y-649D02*
X466Y-654D01*
X380Y-649D02*
X461D01*
X363Y-666D02*
X380Y-649D01*
X363Y-755D02*
Y-666D01*
Y-755D02*
X439Y-831D01*
X511D01*
X119Y-673D02*
Y-604D01*
Y-673D02*
X166Y-720D01*
X220D01*
X80Y-860D02*
X158Y-782D01*
X262D01*
X305Y-739D01*
Y-631D01*
X358Y-578D01*
X220Y-626D02*
X246D01*
X323Y-549D01*
X195Y-649D02*
X274D01*
X175Y-668D02*
X195Y-649D01*
X151Y-668D02*
X175D01*
X135Y-651D02*
X151Y-668D01*
X135Y-651D02*
Y-634D01*
X167Y-602D01*
X176D01*
X192Y-586D01*
Y-578D02*
X220D01*
X935Y-857D02*
X971Y-893D01*
X1378Y-791D02*
X1469D01*
X1500Y-760D01*
X1444Y-890D02*
Y-842D01*
X1433Y-831D02*
X1444Y-842D01*
X1378Y-831D02*
X1433D01*
X1142Y-356D02*
Y-294D01*
X1229Y-207D01*
X1046Y-864D02*
X1052D01*
X1020Y-890D02*
X1046Y-864D01*
X1020Y-965D02*
Y-890D01*
X1013Y-972D02*
X1020Y-965D01*
X1013Y-1018D02*
Y-972D01*
X1131Y-1018D02*
Y-961D01*
X1114Y-898D02*
X1130Y-921D01*
X1044Y-716D02*
X1153Y-825D01*
X973Y-716D02*
X1044D01*
X930Y-673D02*
X973Y-716D01*
X511Y-673D02*
X930D01*
X915Y-967D02*
X948Y-933D01*
X915Y-1018D02*
Y-967D01*
X960Y-765D02*
X1002Y-807D01*
Y-917D02*
Y-807D01*
X995Y-924D02*
X1002Y-917D01*
X995Y-979D02*
Y-924D01*
X994Y-980D02*
X995Y-979D01*
X994Y-1018D02*
Y-980D01*
X958Y-457D02*
X1378D01*
X845Y-344D02*
X958Y-457D01*
X1171Y-199D02*
Y-152D01*
X1017Y-353D02*
X1171Y-199D01*
X1289Y-196D02*
X1436D01*
X860Y-57D02*
X898D01*
X915Y-74D01*
Y-152D02*
Y-74D01*
X935Y-101D02*
X1289D01*
X935Y-152D02*
Y-101D01*
X760Y-57D02*
X801Y-98D01*
X868D01*
X876Y-106D01*
Y-152D02*
Y-106D01*
X1013Y-198D02*
Y-152D01*
X1009Y-202D02*
X1013Y-198D01*
X785Y-202D02*
X1009D01*
X767Y-220D02*
X785Y-202D01*
X601Y-220D02*
X654Y-295D01*
X583Y-202D02*
X601Y-220D01*
X583Y-202D02*
Y-61D01*
X628Y-16D01*
X919D01*
X960Y-57D01*
X589Y-858D02*
Y-750D01*
X620Y-719D01*
X817Y-1018D02*
Y-905D01*
X836Y-937D02*
X863Y-910D01*
X836Y-1018D02*
Y-937D01*
X317Y-480D02*
Y-281D01*
X401Y-673D02*
X440D01*
X394Y-680D02*
X401Y-673D01*
X421Y-887D02*
X446Y-862D01*
X421Y-901D02*
Y-887D01*
X321Y-901D02*
X421D01*
X280Y-860D02*
X321Y-901D01*
X411Y-720D02*
X440D01*
X401Y-730D02*
X411Y-720D01*
X401Y-744D02*
Y-730D01*
X317Y-281D02*
X376D01*
X954Y-1018D02*
X974D01*
X83Y-380D02*
X120D01*
X75Y-371D02*
X83Y-380D01*
X40Y-371D02*
X75D01*
D24*
X1072Y-896D02*
X1084Y-884D01*
X1078Y-891D02*
X1083Y-874D01*
X1072Y-908D02*
X1078Y-891D01*
X1071Y-819D02*
X1121Y-859D01*
X199Y-17D02*
X270Y-88D01*
X278Y-96D01*
X1248Y-551D02*
X1267Y-594D01*
X708Y-575D02*
X728Y-594D01*
X1470Y-702D02*
X1534D01*
X1542Y-710D01*
Y-818D02*
Y-710D01*
X1500Y-860D02*
X1542Y-818D01*
X680Y-824D02*
Y-730D01*
X717Y-693D01*
X803D01*
X843Y-733D01*
X982D01*
X1084Y-835D01*
Y-884D02*
Y-835D01*
X1180Y-859D02*
X1196Y-875D01*
X1121Y-859D02*
X1180D01*
X278Y-96D02*
Y-80D01*
X58Y-17D02*
X199D01*
X17Y-58D02*
X58Y-17D01*
X17Y-154D02*
Y-58D01*
Y-154D02*
X65Y-202D01*
X120D01*
Y-261D02*
Y-202D01*
D25*
X78Y-320D02*
X120D01*
X67Y-309D02*
Y-273D01*
X40Y-308D02*
X73D01*
X85Y-320D01*
X64Y-270D02*
X67Y-273D01*
Y-309D02*
X78Y-320D01*
D26*
X1072Y-1018D02*
Y-896D01*
X575Y-929D02*
X680Y-824D01*
X1378Y-339D02*
X1429D01*
X1334D02*
X1378D01*
X1421Y-594D02*
X1429Y-586D01*
X1289Y-1016D02*
X1318D01*
X738Y-152D02*
Y-96D01*
Y-194D02*
Y-152D01*
X732Y-240D02*
X736Y-197D01*
X511Y-299D02*
X563D01*
X1421Y-594D02*
X1422D01*
X1378D02*
X1421D01*
X1267D02*
X1378D01*
X728D02*
X1267D01*
X563Y-575D02*
X708D01*
X511D02*
X563D01*
Y-299D01*
X1422Y-594D02*
X1434Y-606D01*
Y-666D02*
Y-606D01*
Y-666D02*
X1470Y-702D01*
X1289Y-1018D02*
Y-1016D01*
X511Y-929D02*
X575D01*
X651Y-86D02*
X728D01*
X738Y-96D01*
X1429Y-586D02*
Y-339D01*
X729Y-203D02*
X738Y-194D01*
X609Y-203D02*
X729D01*
X600Y-194D02*
X609Y-203D01*
X600Y-194D02*
Y-152D01*
X1334Y-240D02*
X1378D01*
X1326Y-248D02*
X1334Y-240D01*
X1326Y-331D02*
Y-248D01*
Y-331D02*
X1334Y-339D01*
D27*
X-63Y-1083D02*
X31D01*
X0Y-1154D02*
Y-992D01*
X1520Y-1083D02*
X1634D01*
X1575Y-1134D02*
Y-1012D01*
X1508Y0D02*
X1634D01*
X1575Y-63D02*
Y79D01*
X-63Y0D02*
X63D01*
X0Y-102D02*
Y83D01*
X772Y-1000D02*
X788D01*
X780Y-1008D02*
Y-992D01*
X312Y-1000D02*
X328D01*
X320Y-1008D02*
Y-992D01*
D28*
X760Y-57D02*
D03*
X860D02*
D03*
X960D02*
D03*
X1060D02*
D03*
X1160D02*
D03*
X1500Y-260D02*
D03*
Y-360D02*
D03*
Y-460D02*
D03*
Y-560D02*
D03*
Y-760D02*
D03*
Y-660D02*
D03*
X80Y-860D02*
D03*
X180D02*
D03*
X280D02*
D03*
D29*
X1476Y-984D02*
D03*
X98Y-98D02*
D03*
Y-984D02*
D03*
X1476Y-98D02*
D03*
D30*
X772Y-555D02*
D03*
X1248Y-791D02*
D03*
X1272Y-377D02*
D03*
X1303Y-260D02*
D03*
X1094Y-941D02*
D03*
X591Y-913D02*
D03*
X771Y-725D02*
D03*
X763Y-900D02*
D03*
X262Y-130D02*
D03*
X863Y-295D02*
D03*
X1203Y-683D02*
D03*
X165Y-563D02*
D03*
X909Y-902D02*
D03*
X1174Y-328D02*
D03*
X1312Y-763D02*
D03*
X1153Y-825D02*
D03*
X926Y-256D02*
D03*
X1012Y-270D02*
D03*
X979Y-237D02*
D03*
X1165Y-913D02*
D03*
X119Y-604D02*
D03*
X323Y-549D02*
D03*
X274Y-649D02*
D03*
X1248Y-551D02*
D03*
X971Y-893D02*
D03*
X1318Y-1016D02*
D03*
X1444Y-890D02*
D03*
X1196Y-875D02*
D03*
X1052Y-864D02*
D03*
X1114Y-898D02*
D03*
X948Y-933D02*
D03*
X960Y-765D02*
D03*
X732Y-240D02*
D03*
X845Y-344D02*
D03*
X1017Y-353D02*
D03*
X651Y-86D02*
D03*
X591Y-843D02*
D03*
X620Y-719D02*
D03*
X579Y-303D02*
D03*
X817Y-905D02*
D03*
X863Y-910D02*
D03*
X394Y-680D02*
D03*
X446Y-862D02*
D03*
X278Y-80D02*
D03*
X401Y-744D02*
D03*
X64Y-270D02*
D03*
D31*
X817Y-1018D02*
D03*
X836D02*
D03*
X895D02*
D03*
X915D02*
D03*
X698D02*
D03*
X718D02*
D03*
X994D02*
D03*
X1013D02*
D03*
X738D02*
D03*
X757D02*
D03*
X1092D02*
D03*
X1112D02*
D03*
X1131D02*
D03*
X1151D02*
D03*
X876D02*
D03*
X935D02*
D03*
X600D02*
D03*
X620D02*
D03*
X639D02*
D03*
X659D02*
D03*
X679D02*
D03*
X777D02*
D03*
X797D02*
D03*
X856D02*
D03*
X954D02*
D03*
X974D02*
D03*
X1033D02*
D03*
X1053D02*
D03*
X1072D02*
D03*
X1171D02*
D03*
X1191D02*
D03*
X1210D02*
D03*
X1230D02*
D03*
X1250D02*
D03*
X1269D02*
D03*
X1289D02*
D03*
Y-152D02*
D03*
X1269D02*
D03*
X1250D02*
D03*
X1230D02*
D03*
X1210D02*
D03*
X1191D02*
D03*
X1171D02*
D03*
X1151D02*
D03*
X1131D02*
D03*
X1112D02*
D03*
X1092D02*
D03*
X1072D02*
D03*
X1053D02*
D03*
X1033D02*
D03*
X1013D02*
D03*
X994D02*
D03*
X974D02*
D03*
X954D02*
D03*
X935D02*
D03*
X915D02*
D03*
X895D02*
D03*
X876D02*
D03*
X856D02*
D03*
X836D02*
D03*
X817D02*
D03*
X797D02*
D03*
X777D02*
D03*
X757D02*
D03*
X738D02*
D03*
X718D02*
D03*
X698D02*
D03*
X679D02*
D03*
X659D02*
D03*
X639D02*
D03*
X620D02*
D03*
D32*
X120Y-380D02*
D03*
Y-320D02*
D03*
Y-261D02*
D03*
Y-202D02*
D03*
D33*
X317Y-281D02*
D03*
D34*
X440Y-720D02*
D03*
X220Y-673D02*
D03*
Y-626D02*
D03*
Y-578D02*
D03*
X440Y-673D02*
D03*
Y-626D02*
D03*
Y-578D02*
D03*
D35*
X511Y-772D02*
D03*
Y-791D02*
D03*
Y-496D02*
D03*
Y-516D02*
D03*
Y-535D02*
D03*
Y-555D02*
D03*
Y-732D02*
D03*
Y-752D02*
D03*
Y-673D02*
D03*
Y-909D02*
D03*
Y-240D02*
D03*
Y-654D02*
D03*
Y-831D02*
D03*
Y-299D02*
D03*
Y-575D02*
D03*
Y-929D02*
D03*
Y-260D02*
D03*
Y-280D02*
D03*
Y-319D02*
D03*
Y-339D02*
D03*
Y-358D02*
D03*
Y-378D02*
D03*
Y-398D02*
D03*
Y-417D02*
D03*
Y-437D02*
D03*
Y-457D02*
D03*
Y-476D02*
D03*
Y-594D02*
D03*
Y-614D02*
D03*
Y-634D02*
D03*
Y-693D02*
D03*
Y-713D02*
D03*
Y-811D02*
D03*
Y-850D02*
D03*
Y-870D02*
D03*
Y-890D02*
D03*
X1378Y-929D02*
D03*
Y-909D02*
D03*
Y-890D02*
D03*
Y-870D02*
D03*
Y-850D02*
D03*
Y-831D02*
D03*
Y-811D02*
D03*
Y-791D02*
D03*
Y-772D02*
D03*
Y-752D02*
D03*
Y-732D02*
D03*
Y-713D02*
D03*
Y-693D02*
D03*
Y-673D02*
D03*
Y-654D02*
D03*
Y-634D02*
D03*
Y-614D02*
D03*
Y-594D02*
D03*
Y-575D02*
D03*
Y-555D02*
D03*
Y-535D02*
D03*
Y-516D02*
D03*
Y-496D02*
D03*
Y-476D02*
D03*
Y-457D02*
D03*
Y-437D02*
D03*
Y-417D02*
D03*
Y-398D02*
D03*
Y-378D02*
D03*
Y-358D02*
D03*
Y-339D02*
D03*
Y-319D02*
D03*
Y-299D02*
D03*
Y-280D02*
D03*
Y-260D02*
D03*
Y-240D02*
D03*
D36*
X600Y-152D02*
D03*
D37*
X220Y-720D02*
D03*
D38*
X34Y-826D02*
Y-817D01*
X30Y-812D01*
X16D01*
Y-826D01*
X20Y-831D01*
X25Y-826D01*
Y-812D01*
X16Y-803D02*
X34D01*
Y-789D01*
X30Y-785D01*
X16D01*
X43Y-757D02*
X16D01*
Y-771D01*
X20Y-776D01*
X30D01*
X34Y-771D01*
Y-757D01*
Y-748D02*
X20D01*
X16Y-743D01*
Y-730D01*
X11D01*
X7Y-734D01*
Y-739D01*
X16Y-730D02*
X34D01*
X25Y-707D02*
X30D01*
Y-711D01*
X25D01*
Y-707D01*
X30Y-702D01*
X39D01*
X43Y-707D01*
Y-716D01*
X39Y-721D01*
X20D01*
X16Y-716D01*
Y-702D01*
X34Y-693D02*
X20D01*
X16Y-688D01*
X20Y-684D01*
X16Y-679D01*
X20Y-675D01*
X34D01*
Y-661D02*
Y-652D01*
X30Y-647D01*
X16D01*
Y-661D01*
X20Y-665D01*
X25Y-661D01*
Y-647D01*
X34Y-638D02*
X16D01*
X25D01*
X30Y-633D01*
X34Y-629D01*
Y-624D01*
X16Y-610D02*
X34D01*
Y-606D01*
X30Y-601D01*
X16D01*
X30D01*
X34Y-597D01*
X30Y-592D01*
X16D01*
X34Y-564D02*
Y-578D01*
X30Y-583D01*
X20D01*
X16Y-578D01*
Y-564D01*
X34Y-551D02*
Y-541D01*
X30Y-537D01*
X16D01*
Y-551D01*
X20Y-555D01*
X25Y-551D01*
Y-537D01*
X39Y-523D02*
X34D01*
Y-528D01*
Y-518D01*
Y-523D01*
X20D01*
X16Y-518D01*
Y-505D02*
X20D01*
Y-500D01*
X16D01*
Y-505D01*
X34Y-463D02*
Y-477D01*
X30Y-482D01*
X20D01*
X16Y-477D01*
Y-463D01*
Y-450D02*
Y-440D01*
X20Y-436D01*
X30D01*
X34Y-440D01*
Y-450D01*
X30Y-454D01*
X20D01*
X16Y-450D01*
Y-427D02*
X34D01*
Y-422D01*
X30Y-417D01*
X16D01*
X30D01*
X34Y-413D01*
X30Y-408D01*
X16D01*
X525Y-115D02*
X530Y-110D01*
X539D01*
X543Y-115D01*
Y-133D01*
X539Y-138D01*
X530D01*
X525Y-133D01*
Y-124D01*
X534D01*
X516Y-119D02*
Y-138D01*
Y-129D01*
X511Y-124D01*
X507Y-119D01*
X502D01*
X474Y-138D02*
X484D01*
X488Y-133D01*
Y-124D01*
X484Y-119D01*
X474D01*
X470Y-124D01*
Y-129D01*
X488D01*
X447Y-138D02*
X456D01*
X461Y-133D01*
Y-124D01*
X456Y-119D01*
X447D01*
X442Y-124D01*
Y-129D01*
X461D01*
X433Y-138D02*
Y-119D01*
X419D01*
X415Y-124D01*
Y-138D01*
X539Y-94D02*
Y-76D01*
X530Y-67D01*
X521Y-76D01*
Y-94D01*
Y-81D01*
X539D01*
X512Y-94D02*
Y-76D01*
X498D01*
X493Y-81D01*
Y-94D01*
X466Y-67D02*
Y-94D01*
X480D01*
X484Y-90D01*
Y-81D01*
X480Y-76D01*
X466D01*
X457D02*
Y-90D01*
X452Y-94D01*
X438D01*
Y-99D01*
X443Y-104D01*
X448D01*
X438Y-94D02*
Y-76D01*
X530Y-47D02*
X539Y-38D01*
Y-29D01*
X530Y-20D01*
X498Y-29D02*
X512D01*
X516Y-33D01*
Y-43D01*
X512Y-47D01*
X498D01*
X489D02*
X480Y-38D01*
Y-29D01*
X489Y-20D01*
X448Y-47D02*
X466D01*
X448Y-29D01*
Y-24D01*
X452Y-20D01*
X461D01*
X466Y-24D01*
X438D02*
X434Y-20D01*
X425D01*
X420Y-24D01*
Y-43D01*
X425Y-47D01*
X434D01*
X438Y-43D01*
Y-24D01*
X411D02*
X406Y-20D01*
X397D01*
X392Y-24D01*
Y-43D01*
X397Y-47D01*
X406D01*
X411Y-43D01*
Y-24D01*
X383Y-20D02*
X365D01*
Y-24D01*
X383Y-43D01*
Y-47D01*
X528Y-1043D02*
Y-1071D01*
X518Y-1062D01*
X509Y-1071D01*
Y-1043D01*
X500D02*
Y-1071D01*
Y-1057D01*
X495Y-1052D01*
X486D01*
X482Y-1057D01*
Y-1071D01*
X472D02*
X463D01*
X468D01*
Y-1052D01*
X472D01*
X449D02*
Y-1071D01*
Y-1062D01*
X445Y-1057D01*
X440Y-1052D01*
X436D01*
X422Y-1071D02*
X413D01*
X417D01*
Y-1043D01*
X422D01*
X399Y-1052D02*
Y-1066D01*
X394Y-1071D01*
X381D01*
Y-1075D01*
X385Y-1080D01*
X390D01*
X381Y-1071D02*
Y-1052D01*
X362Y-1080D02*
X358D01*
X353Y-1075D01*
Y-1052D01*
X367D01*
X371Y-1057D01*
Y-1066D01*
X367Y-1071D01*
X353D01*
X344D02*
X335D01*
X339D01*
Y-1052D01*
X344D01*
X312Y-1080D02*
X307D01*
X303Y-1075D01*
Y-1052D01*
X316D01*
X321Y-1057D01*
Y-1066D01*
X316Y-1071D01*
X303D01*
X266D02*
Y-1043D01*
X252D01*
X247Y-1048D01*
Y-1057D01*
X252Y-1062D01*
X266D01*
X257D02*
X247Y-1071D01*
X238D02*
Y-1043D01*
X220Y-1071D01*
Y-1043D01*
X192Y-1048D02*
X197Y-1043D01*
X206D01*
X211Y-1048D01*
Y-1066D01*
X206Y-1071D01*
X197D01*
X192Y-1066D01*
Y-1057D01*
X202D01*
M02*
