M48
;Layer_Color=15461320
;FILE_FORMAT=2:3
INCH,LZ
;TYPE=PLATED
T1F00S00C0.030
T2F00S00C0.035
T3F00S00C0.079
;TYPE=NON_PLATED
T4F00S00C0.035
%
T01
X00845Y-00344
X01017Y-00353
X01174Y-00328
X01272Y-00377
X01248Y-00551
X01203Y-00683
X01248Y-00791
X01312Y-00763
X01153Y-00825
X01196Y-00875
X01165Y-00913
X01114Y-00898
X01094Y-00941
X01052Y-00864
X00971Y-00893
X00948Y-00933
X00909Y-00902
X00863Y-0091
X00817Y-00905
X00763Y-009
X00771Y-00725
X00772Y-00555
X0096Y-00765
X01318Y-01016
X01444Y-0089
X00591Y-00913
Y-00843
X0062Y-00719
X00401Y-00744
X00394Y-0068
X00274Y-00649
X00323Y-00549
X00165Y-00563
X00119Y-00604
X00446Y-00862
X00579Y-00303
X00262Y-0013
X00278Y-0008
X00064Y-0027
X00732Y-0024
X00863Y-00295
X00926Y-00256
X00979Y-00237
X01012Y-0027
X01303Y-0026
X00651Y-00086
T02
X015Y-0036
Y-0046
Y-0056
Y-0066
Y-0076
Y-0086
X0038
X0028
X0018
X0008
X0076Y-00057
X0086
X0096
X0106
X0116
X0126
X015Y-0026
T03
X01476Y-00984
X00098
Y-00098
X01476
T04
X00163Y-00466
Y-0064
M30
